Patient4_TMGait_0pt2_02_right_08_EMG.mot
version=1
nRows=30
nColumns=33
inDegrees=no
endheader
time	1LAddLong	2LGlutMax	3LGlutMed	4LIliopsoas	5LSemiMemb	6LBicFemLong	7LRecFem	8LVastMed	9LVastLat	10LGasMed	11LTibAnt	12lTibPost	13LPeroneusLong	14LSol	15LExtDigLong	16LFlexDigLong	17RAddLong	18RGlutMax	19RGlutMed	20RIliopsoas	21RSemiMemb	22RBicFemLong	23RRecFem	24RVastMed	25RVastLat	26RGasMed	27RTibAnt	28RTibPost	29RPeroneusLong	30RSol	31RExtDigLong	32RFlexDigLong
16.87	0.037384	-0.000763	0.15701	0.033112	0.16571	0.084839	0.054474	0.007172	-0.098724	-0.042419	-0.023651	0.007019	-0.044708	-0.036316	-0.009308	-0.010834	0.025024	-0.023499	0.61356	-0.022888	0.028381	-0.012054	0.093994	0.04425	0.000458	0.005341	-0.007782	-0.005188	0.10269	-0.031738	0.000153	-0.019836
16.871	0.058594	-0.033569	0.095062	0.000763	0.15198	-0.16815	0.00351	-0.004425	-0.003052	-0.098114	0.067139	-0.001068	-0.37384	-0.13382	-0.076904	0.010376	0.024872	-0.091858	0.47623	-0.096741	0.011292	-0.033875	0.11017	0.056	-0.00412	0.000305	0.017395	0.001373	0.070038	-0.051117	-0.001221	-0.016632
16.872	0.054169	-0.048828	0.037384	0.005035	0.11063	-0.38391	-0.12512	-0.010986	0.014648	-0.10971	0.017853	-0.000763	-0.70664	0.2327	-0.005341	0.02243	0.011902	-0.13458	0.29511	-0.11002	0.000916	-0.028992	0.096588	0.010223	-0.023346	0.016785	-0.003052	-0.004578	0.12909	-0.036316	-0.003357	-0.014191
16.873	0.044556	-0.025635	0.048981	0.013733	0.084991	-0.47974	-0.17044	-0.000458	-0.014496	-0.079346	-0.008087	0.001373	-0.8226	0.13657	-0.10483	0.016785	0.005798	-0.025482	0.48248	0.011749	-0.005951	-0.03067	0.14236	0.019379	-0.018311	0.003204	0.042114	-0.009918	0.14587	-0.049591	-0.005035	-0.010529
16.874	0.046844	-0.054016	-0.098724	0.020752	0.06073	-0.24368	-0.24124	0.001984	0.11658	-0.032349	-0.003357	0.005035	-0.35553	0.1181	-0.073395	0.015411	0.017395	-0.047913	0.5304	0.058136	0.002441	-0.02243	0.17731	0.008545	-0.023956	0.002289	0.033569	-0.005035	0.13519	-0.026855	-0.002899	-0.005493
16.875	0.042419	0.02655	-0.11429	0.011139	0.032959	-0.18356	-0.28244	0.024719	0.18723	-0.024109	0.00351	-0.00473	-0.009155	-0.13336	-0.021057	0.004272	0.014343	0.010681	0.4744	0.068054	-0.006409	-0.019379	0.1799	0.010223	-0.019379	0.007172	0.01358	-0.010376	0.11383	-0.023956	0.00351	-0.009003
16.876	0.03006	0.082855	-0.16113	0.005035	0.040894	-0.037231	-0.33722	0.012054	0.27008	0.17471	-0.002289	-0.002747	0.18326	-0.10025	0.040283	-0.015869	0.018005	0.10071	0.75592	0.041962	0	-0.021667	0.1265	0.023346	-0.006866	-0.001678	-0.000305	-0.008698	0.07019	-0.053558	0.000305	0.004425
16.877	0.02243	0.13382	-0.1387	-0.01358	0.036163	0.075531	-0.25482	0.018158	0.4538	0.38177	-0.000916	-0.008087	0.33402	-0.097046	0.039978	-0.003357	0.017548	0.19348	0.5336	0.046844	-0.012054	-0.024872	0.11505	-0.032196	0.000458	-0.006409	0.00946	-0.011139	0.020599	-0.052185	-0.001221	-0.010376
16.878	0.011902	0.13138	-0.14175	-0.009003	0.004578	0.18967	-0.080261	0.004272	0.43823	0.42511	-0.019836	-0.005798	0.38742	-0.11688	-0.017395	0.006104	0.03952	0.26382	0.45654	0.058746	-0.009766	-0.023499	0.14053	-0.001984	0.009308	-0.007935	0.021667	-0.009003	-0.015106	-0.054626	0.00885	-0.014038
16.879	-0.001373	0.15243	-0.10559	-0.006714	-0.024719	0.20798	0.003204	0.007172	0.26672	0.060425	-0.026398	-0.000458	0.063629	-0.13825	-0.056152	0.006409	0.035553	0.26489	0.55924	0.097198	-0.022583	-0.029602	0.1088	0.028839	0.016632	-0.004578	0.025177	-0.00473	-0.015717	-0.057373	-0.003357	-0.009918
16.88	-0.016937	0.13412	-0.11643	0.005951	0.065002	0.112	0.040894	0.007629	-0.000305	-0.22553	-0.02594	0.011292	0.19974	-0.26932	-0.062408	0.02121	0.005341	0.38803	0.54031	0.059052	-0.014648	-0.024719	0.13702	-0.048065	0.02243	-0.001984	0.010681	-0.011444	-0.006409	-0.03891	-0.004272	-0.011292
16.881	-0.019836	0.1947	-0.041351	-0.016479	0.026398	0.094299	0.094604	-0.004425	-0.38437	-0.28503	0.014343	0.014954	0.224	-0.28137	0.00946	0.016632	-0.005341	0.41107	0.47226	0.034637	-0.032501	-0.016174	0.11673	-0.002747	0.021973	-0.005188	0.023499	-0.005188	0.008698	-0.046692	-0.001221	-0.013123
16.882	-0.027771	0.20676	-0.039368	-0.029297	-0.06134	0.018768	0.10651	-0.014038	-0.39398	-0.20554	0.010529	-0.042267	0.48477	-0.20676	-0.00412	0.006256	-0.031433	0.46448	0.69382	-0.001678	-0.017853	-0.015106	0.098572	-0.004578	0.027313	-0.006866	0.19775	-0.007477	0.046082	-0.046234	-0.00061	-0.019989
16.883	-0.030365	0.23148	0.15869	0.026398	0.004578	0.00473	0.06485	-0.020905	-0.22598	-0.13214	0.012512	-0.001526	-0.21072	-0.13504	0.010529	0.006409	-0.058594	0.52841	0.71243	-0.040436	-0.018616	0.000458	0.071106	-0.011749	0.044556	-0.000916	0.16113	-0.005341	0.059814	-0.037384	0.000458	-0.015106
16.884	-0.022583	0.28732	0.25864	0.057983	0.015106	-0.009613	0.086975	-0.009003	-0.092468	-0.11398	-0.010834	0.035095	-0.39719	0.10605	0.008698	0.019226	-0.070038	0.58579	0.59601	-0.058594	-0.013123	-0.013123	0.10193	-0.009155	0.026398	-0.003357	0.12558	0.003204	0.067139	-0.048523	0.000153	-0.019836
16.885	-0.002747	0.26093	0.076599	0.050812	0.000458	0.00824	0.035706	-0.009918	-0.052795	-0.098877	0.005646	0.012665	-0.46509	0.11307	-0.004578	0.036469	-0.027924	0.5629	0.86151	-0.088348	-0.014954	-0.020752	0.086365	0.006714	0.030823	0.000916	0.21469	-0.010071	0.030518	-0.095062	0.000153	-0.018311
16.886	0.007477	0.28229	-0.005798	0.015564	-0.085144	0.10284	0.005188	-0.007019	-0.04425	-0.103	0.010223	-0.007629	0.23758	0.12985	-0.037537	0.002441	0.066681	0.53802	0.73547	-0.092926	-0.005798	-0.021667	0.11185	0.049744	0.020447	0.005188	-0.20004	-0.005188	0.075531	-0.12604	0.001373	-0.020142
16.887	-0.005035	0.25711	-0.13351	-0.02594	-0.06073	0.19379	-0.021667	0.001678	-0.047302	-0.020752	0.000458	0.005188	0.21118	0.14526	-0.045471	0.002136	0.096283	0.46707	0.62134	-0.056152	-0.006256	-0.032654	0.14145	0.008087	0.020905	0.002747	-0.16937	-0.004425	-0.059052	-0.1358	0.000916	-0.021515
16.888	-0.007477	0.25955	-0.11261	-0.012512	0.011749	0.23499	-0.01358	0.025177	-0.058441	-0.023346	0.001526	0.002441	-0.009308	0.1564	0.000458	0.00824	0.09201	0.45334	0.97504	-0.076141	0.005493	-0.028992	0.10361	0.021362	0.02182	0.008698	0.065308	-0.006561	-0.00473	-0.13321	0.001984	-0.011292
16.889	0.006104	0.25284	0.086975	0.00473	0.071869	0.23499	-0.039063	0.036316	-0.04364	0.098419	0.02243	0.004883	0.48279	0.090942	-0.016479	0.009918	0.074005	0.39383	1.2018	-0.10803	0.013123	-0.00885	0.083923	0.061035	0.037689	0.010223	-0.20294	-0.005798	-0.095215	-0.17197	-0.001373	-0.002136
16.89	0.005188	0.23315	0.068817	0.016632	0.10407	0.28168	-0.025177	0.026093	-0.023346	0.094757	0.03006	-0.034485	0.39948	0.19638	-0.045471	-0.006714	0.063324	0.30685	0.63553	-0.06424	0.010071	-0.024567	0.091248	0.067596	0.04303	-0.000458	-0.1471	-0.008545	-0.3067	-0.16815	-0.001068	-0.007935
16.891	-0.001984	0.27512	0.082703	0.011139	0.045319	0.31158	-0.006409	0.018158	0.030212	0.026093	0.0383	0.017853	-0.75699	0.12146	0.016022	-0.013275	0.059357	0.23514	0.457	-0.032806	0.01297	-0.014038	0.072632	0.088654	0.04303	0.000916	-0.26581	-0.005341	-0.13733	-0.10162	0.008087	-0.01236
16.892	0.006104	0.27695	-0.036011	-0.000305	0.02533	0.23499	-0.009003	0.010071	0.099182	-0.21149	0.00946	0.050354	-0.58044	0.23377	0.13794	0.009918	-0.000763	0.14633	0.73608	-0.025177	0.00473	-0.018921	0.10239	0.024261	0.04303	-0.00061	-0.00351	-0.007782	0.24536	-0.034027	-0.005341	-0.007172
16.893	0.003662	0.17777	-0.067749	-0.007782	0.022736	-0.087128	0.003357	-0.050049	0.13016	-0.10925	-0.003357	-0.032806	-0.46707	0.095673	0.081024	0.014954	-0.046692	0.13214	0.81345	0.04776	0.005188	-0.011444	0.12497	0.055695	0.041962	0.001526	0.008698	-0.010071	0.13367	0.091858	-0.000305	-0.01709
16.894	0.008087	0.10544	-0.072632	0.015564	0.004578	-0.10452	0.07843	-0.059204	-0.007172	-0.11414	0.016022	-0.020752	-0.17792	-0.059509	-0.011444	0.038147	-0.087891	0.050201	0.83542	0.15228	0.004425	-0.010223	0.17761	0.030823	0.035553	0.000305	0.015869	-0.009308	0.071564	0.06012	-0.001526	-0.016785
16.895	-0.003357	0.095367	-0.11261	0.013733	-0.003967	-0.46204	0.14191	-0.00412	-0.057068	-0.18585	0.008698	-0.004578	0.58533	-0.28686	-0.17563	0.032959	-0.070648	0.017242	1.096	0.1532	0.010529	-0.021362	0.15213	0.051117	0.03006	0.00412	0.021362	-0.009308	0.11231	0.074005	0.002441	-0.016327
16.896	-0.006561	0.15549	-0.019989	0.008087	-0.028076	-0.4512	0.1738	-0.025482	-0.088196	-0.14313	0.009766	0.02243	0.58991	-0.18234	-0.15137	0.00473	-0.051575	-0.003052	0.79544	0.14374	0.009766	-0.04364	0.15137	0.043335	0.025635	0.001831	0.006256	-0.011749	0.20203	0.11871	-0.001831	-0.025024
16.897	-0.006561	0.15396	-0.05661	-0.001068	-0.024261	-0.22903	0.16586	-0.010681	-0.1236	0.056305	0.008545	0.029907	0.045319	-0.11246	0.031891	0.010834	-0.063019	-0.065308	0.19409	0.065308	0.006104	-0.035095	0.14954	0.003815	0.017548	-0.002289	-0.45258	-0.006714	0.088959	0.095215	-0.000305	-0.029144
16.898	-0.009918	0.18585	0.018616	0.015564	-0.033569	-0.086212	0.084991	-0.010529	-0.2359	0.28442	0.002899	-0.012512	-0.12924	-0.22644	0.048218	0.014496	-0.068054	-0.061646	0.14435	0.049133	0.005188	-0.038452	0.13763	0.052032	0.017548	-0.002441	-0.66315	-0.010986	0.01358	0.059357	-0.000305	-0.02243
16.899	0.003815	0.18936	0.052795	0.014954	-0.011902	0.007172	0.028076	0.01709	-0.14328	0.20615	0.005341	-0.034637	-0.060577	-0.31097	0.019073	-0.002747	-0.021362	-0.047913	0.45837	-0.008087	0.020905	-0.032043	0.12283	0.03067	0.029297	-0.000458	-0.44891	-0.010529	0.059967	0.009766	0.002594	-0.019073
